<svg width="72" height="72" viewBox="0 0 72 72" fill="none" xmlns="http://www.w3.org/2000/svg">
<g clip-path="url(#clip0_27_114)">
<path d="M36 0C16.1176 0 0 16.1176 0 36C0 55.8824 16.1176 72 36 72C55.8824 72 72 55.8824 72 36C72 16.1176 55.8824 0 36 0Z" fill="#09A2EE" fill-opacity="0.6"/>
<path d="M53.5168 20.7086L47.0868 53.1275C47.0868 53.1275 46.1877 55.3758 43.7146 54.2966L28.8764 42.9207L23.4809 40.3129L14.3983 37.2551C14.3983 37.2551 13.0044 36.7607 12.8694 35.6816C12.7347 34.6024 14.4433 34.018 14.4433 34.018L50.549 19.8542C50.549 19.8542 53.5168 18.5503 53.5168 20.7086Z" fill="white"/>
<path d="M27.7365 52.7634C27.7365 52.7634 27.3034 52.7229 26.7636 51.014C26.2242 49.3055 23.4814 40.3128 23.4814 40.3128L45.2887 26.464C45.2887 26.464 46.5479 25.6996 46.5029 26.464C46.5029 26.464 46.7276 26.5987 46.0532 27.2282C45.3787 27.8579 28.9219 42.6508 28.9219 42.6508" fill="#D2E5F1"/>
<path d="M34.5662 47.2824L28.6971 52.6334C28.6971 52.6334 28.2384 52.9816 27.7363 52.7634L28.8602 42.8237" fill="#B5CFE4"/>
</g>
<defs>
<clipPath id="clip0_27_114">
<rect width="72" height="72" fill="white"/>
</clipPath>
</defs>
</svg>
