<svg width="47" height="47" viewBox="0 0 47 47" fill="none" xmlns="http://www.w3.org/2000/svg">
<g clip-path="url(#clip0_28_162)">
<path d="M46.8163 24.2239C47.0612 23.7728 47.0612 23.2271 46.8163 22.776C42.3264 14.5093 33.5687 8.89722 23.5 8.89722C13.4314 8.89722 4.67362 14.5094 0.183738 22.776C-0.0612459 23.2271 -0.0612459 23.7728 0.183738 24.2239C4.6737 32.4906 13.4312 38.1028 23.5 38.1028C33.5687 38.1028 42.3263 32.4906 46.8163 24.2239ZM23.5 34.7013C17.3136 34.7013 12.2987 29.6863 12.2987 23.5C12.2987 17.3138 17.3136 12.2987 23.5 12.2987C29.6863 12.2987 34.7013 17.3137 34.7013 23.5C34.7013 29.6863 29.6863 34.7013 23.5 34.7013Z" fill="black" fill-opacity="0.5"/>
<path d="M23.4999 17.7917C23.0287 17.7917 22.5711 17.8493 22.1331 17.9569C22.5817 18.476 22.8537 19.1521 22.8537 19.892C22.8537 21.5278 21.5276 22.8539 19.8918 22.8539C19.1518 22.8539 18.4758 22.582 17.9566 22.1333C17.849 22.5713 17.7915 23.0289 17.7915 23.5002C17.7915 26.6529 20.3472 29.2085 23.4999 29.2085C26.6525 29.2085 29.2082 26.6528 29.2082 23.5002C29.2082 20.3476 26.6526 17.7917 23.4999 17.7917Z" fill="black" fill-opacity="0.5"/>
</g>
<defs>
<clipPath id="clip0_28_162">
<rect width="47" height="47" fill="white"/>
</clipPath>
</defs>
</svg>
