<svg width="72" height="72" viewBox="0 0 72 72" fill="none" xmlns="http://www.w3.org/2000/svg">
<g clip-path="url(#clip0_27_120)">
<path d="M35.9999 0C55.8832 0 72 16.119 72 36.0001C72 55.8835 55.8832 72 35.9999 72C16.1165 72 0 55.8832 0 36.0001C0 16.119 16.1168 0 35.9999 0Z" fill="#09A2EE" fill-opacity="0.63"/>
<path d="M40.3831 24.7837H45.0226V17.9302H39.5687V17.9549C32.9604 18.1889 31.606 21.9036 31.4866 25.8052H31.473V29.2275H26.9731V35.9391H31.473V53.93H38.2546V35.9391H43.8099L44.883 29.2275H38.2569V27.1598C38.2569 25.8413 39.1342 24.7837 40.3831 24.7837Z" fill="white"/>
</g>
<defs>
<clipPath id="clip0_27_120">
<rect width="72" height="72" fill="white"/>
</clipPath>
</defs>
</svg>
