<svg width="72" height="72" viewBox="0 0 72 72" fill="none" xmlns="http://www.w3.org/2000/svg">
<g clip-path="url(#clip0_28_139)">
<path d="M36 0C16.1184 0 0 16.1177 0 36C0 55.8823 16.1184 72 36 72C55.8816 72 72 55.8823 72 36C72 16.1177 55.8816 0 36 0ZM54.2611 39.8935C55.939 41.5324 57.7142 43.0748 59.2205 44.8831C59.8878 45.683 60.5168 46.5102 60.9956 47.4404C61.6791 48.767 61.0619 50.2217 59.8745 50.3006L52.4992 50.2991C50.5945 50.4567 49.0786 49.6885 47.8006 48.3862C46.7805 47.3484 45.834 46.2398 44.8514 45.1666C44.45 44.7262 44.0272 44.3115 43.5234 43.9852C42.5179 43.3311 41.6444 43.5315 41.0684 44.5818C40.4813 45.6506 40.3473 46.835 40.2913 48.0245C40.211 49.7636 39.6865 50.2181 37.9416 50.2998C34.2131 50.4744 30.6753 49.9087 27.3873 48.029C24.4866 46.3709 22.2416 44.0309 20.2852 41.3814C16.4757 36.2165 13.5581 30.5479 10.9366 24.7164C10.3466 23.4031 10.7783 22.7004 12.2271 22.6732C14.6342 22.6268 17.0413 22.6327 19.4485 22.671C20.4281 22.6864 21.0763 23.247 21.4527 24.1714C22.7535 27.3718 24.3482 30.4168 26.3465 33.2408C26.879 33.9928 27.4226 34.7427 28.1967 35.2737C29.0512 35.8601 29.7023 35.6663 30.1052 34.7125C30.363 34.1063 30.4742 33.4581 30.5302 32.8084C30.7217 30.5832 30.7446 28.3588 30.4131 26.1424C30.2069 24.7555 29.4268 23.8598 28.0443 23.5976C27.3401 23.4643 27.4432 23.2035 27.7857 22.8013C28.3802 22.106 28.937 21.6759 30.05 21.6759L38.3828 21.6744C39.6961 21.9322 39.9907 22.5215 40.169 23.8443L40.1764 33.1045C40.1609 33.6164 40.4334 35.1338 41.3527 35.4689C42.0892 35.712 42.5754 35.1213 43.0159 34.655C45.0142 32.5344 46.438 30.0315 47.713 27.441C48.2757 26.2986 48.7611 25.1164 49.2325 23.932C49.5831 23.0562 50.1282 22.6253 51.1167 22.64L59.1409 22.6496C59.3773 22.6496 59.6175 22.6518 59.8517 22.6923C61.2041 22.9236 61.5745 23.5055 61.1562 24.8247C60.4977 26.8974 59.2182 28.624 57.9675 30.3549C56.627 32.2081 55.1973 33.9965 53.87 35.8578C52.6502 37.5593 52.7467 38.416 54.2611 39.8935Z" fill="#6BC7F5"/>
</g>
<defs>
<clipPath id="clip0_28_139">
<rect width="72" height="72" fill="white"/>
</clipPath>
</defs>
</svg>
